# xmcd
#
# Track frame offsets:
#	150
#	11927
#	23420
#	35159
#	46060
#	58814
#	71608
#	85116
#	98234
#	109084
#	123259
#	132876
#	143305
#	155019
#	164604
#
# Disc length: 2343 seconds
#
# Revision: 0
# Processed by: cddbd v1.5.1PL2 Copyright (c) Steve Scherf et al.
# Submitted via: dBpowerAMP V4.0
#
DISCID=c409250f
DTITLE=George Jones - Tender Years Disc 2
DYEAR=1900
DGENRE=Country
TTITLE0=White Lightnin'
TTITLE1=A House Without Love Is Not A Home
TTITLE2=Tarnished Angel
TTITLE3=Don't You Ever Get Tired Of Hurting Me?
TTITLE4=Blue Side Of Lonesome
TTITLE5=Lifetime To Regret
TTITLE6=Things Have Gone To Pieces
TTITLE7=When I Wake Up From Dreaming
TTITLE8=Let A Litttle Lovin' Come In
TTITLE9=Open Pit Mine
TTITLE10=World's Worst Loser
TTITLE11=Back In My Baby's Arms Again
TTITLE12=I Can't Change Overnight
TTITLE13=Sweet Dreams
TTITLE14=One Is A Lonely Number
EXTD=
EXTT0=
EXTT1=
EXTT2=
EXTT3=
EXTT4=
EXTT5=
EXTT6=
EXTT7=
EXTT8=
EXTT9=
EXTT10=
EXTT11=
EXTT12=
EXTT13=
EXTT14=
PLAYORDER=
